<svg width="279" height="255" viewBox="0 0 279 255" fill="none" xmlns="http://www.w3.org/2000/svg">
<path fill-rule="evenodd" clip-rule="evenodd" d="M24.2727 247.398C16.1866 247.267 9.71433 242.229 9.81638 236.146L11.4875 136.522C11.5896 130.438 18.2273 125.613 26.3134 125.744C34.3994 125.874 40.8717 130.912 40.7697 136.995L39.0985 236.62C38.9965 242.703 32.3587 247.528 24.2727 247.398Z" fill="white"/>
<path fill-rule="evenodd" clip-rule="evenodd" d="M15.7462 137.658C19.582 129.378 27.0616 124.618 32.4524 127.026L240.523 219.979C245.914 222.387 247.174 231.052 243.338 239.332C239.503 247.612 232.023 252.372 226.632 249.964L18.5617 157.011C13.1709 154.603 11.9103 145.938 15.7462 137.658Z" fill="white"/>
<path fill-rule="evenodd" clip-rule="evenodd" d="M239.258 240.397C232.739 246.756 224.14 248.635 220.051 244.593L8.28177 35.2693C4.19239 31.2272 6.16145 22.7951 12.6798 16.4357C19.1981 10.0763 27.7973 8.19785 31.8867 12.24L243.656 221.563C247.745 225.605 245.776 234.037 239.258 240.397Z" fill="white"/>
<path fill-rule="evenodd" clip-rule="evenodd" d="M185.044 96.058C181.455 103.938 174.031 108.344 168.463 105.898L10.7962 36.6574C5.22741 34.2118 3.62216 25.8411 7.21076 17.961C10.7994 10.0808 18.2229 5.67522 23.7917 8.1208L181.458 77.3616C187.027 79.8072 188.632 88.1779 185.044 96.058Z" fill="white"/>
<path fill-rule="evenodd" clip-rule="evenodd" d="M159.944 100.05C153.679 94.0386 152.089 85.6584 156.393 81.3326L229.135 8.22401C233.439 3.89817 242.007 5.26475 248.273 11.2763C254.538 17.2879 256.128 25.6681 251.824 29.9939L179.082 103.102C174.778 107.428 166.21 106.062 159.944 100.05Z" fill="white"/>
<path fill-rule="evenodd" clip-rule="evenodd" d="M268.18 117.811C262.485 123.698 254.302 125.143 249.902 121.038L155.952 33.3912C151.552 29.2866 152.602 21.1869 158.297 15.3001C163.991 9.41328 172.175 7.96853 176.575 12.0731L270.525 99.7202C274.925 103.825 273.875 111.925 268.18 117.811Z" fill="white"/>
<path fill-rule="evenodd" clip-rule="evenodd" d="M23.9109 243.762C18.2041 243.669 13.654 239.051 13.748 233.447L15.2875 141.671C15.3815 136.066 20.084 131.598 25.7909 131.691C31.4977 131.783 36.0478 136.401 35.9538 142.005L34.4143 233.782C34.3203 239.386 29.6178 243.854 23.9109 243.762Z" fill="black"/>
<path fill-rule="evenodd" clip-rule="evenodd" d="M18.6838 138.858C21.0472 133.756 27.1748 131.501 32.3701 133.822L232.894 223.404C238.09 225.725 240.385 231.742 238.022 236.844C235.658 241.946 229.531 244.2 224.336 241.879L23.8113 152.298C18.616 149.977 16.3204 143.959 18.6838 138.858Z" fill="black"/>
<path fill-rule="evenodd" clip-rule="evenodd" d="M237.373 238.164C233.323 242.115 226.78 242.094 222.757 238.118L14.442 32.2081C10.4193 28.2319 10.4407 21.8062 14.4897 17.8559C18.5388 13.9055 25.0822 13.9265 29.1049 17.9028L237.42 223.812C241.443 227.788 241.422 234.214 237.373 238.164Z" fill="black"/>
<path fill-rule="evenodd" clip-rule="evenodd" d="M177.605 93.4232C175.275 98.5398 169.162 100.833 163.952 98.5446L16.4341 33.7605C11.2238 31.4723 8.8889 25.4696 11.219 20.353C13.5491 15.2364 19.6618 12.9435 24.8721 15.2317L172.39 80.0157C177.6 82.3039 179.935 88.3066 177.605 93.4232Z" fill="black"/>
<path fill-rule="evenodd" clip-rule="evenodd" d="M162.031 97.3636C157.949 93.4465 157.873 87.0211 161.862 83.0122L229.275 15.2589C233.264 11.2499 239.807 11.1755 243.889 15.0925C247.971 19.0096 248.047 25.435 244.058 29.4439L176.645 97.1972C172.656 101.206 166.113 101.281 162.031 97.3636Z" fill="black"/>
<path fill-rule="evenodd" clip-rule="evenodd" d="M265.65 114.858C261.719 118.922 255.178 119.087 251.04 115.226L162.679 32.7939C158.541 28.9335 158.374 22.5099 162.305 18.4463C166.236 14.3827 172.777 14.218 176.915 18.0784L265.276 100.511C269.414 104.371 269.581 110.795 265.65 114.858Z" fill="black"/>
</svg>
