<?xml version="1.0" encoding="UTF-8" standalone="no"?>
<svg
   width="254"
   height="233"
   viewBox="0 0 254 233"
   fill="none"
   version="1.1"
   id="svg6"
   sodipodi:docname="favicon-base.svg"
   inkscape:export-filename="favicon-base-blanc.svg"
   inkscape:export-xdpi="96"
   inkscape:export-ydpi="96"
   xmlns:inkscape="http://www.inkscape.org/namespaces/inkscape"
   xmlns:sodipodi="http://sodipodi.sourceforge.net/DTD/sodipodi-0.dtd"
   xmlns="http://www.w3.org/2000/svg"
   xmlns:svg="http://www.w3.org/2000/svg">
  <defs
     id="defs6" />
  <sodipodi:namedview
     id="namedview6"
     pagecolor="#505050"
     bordercolor="#eeeeee"
     borderopacity="1"
     inkscape:showpageshadow="0"
     inkscape:pageopacity="0"
     inkscape:pagecheckerboard="0"
     inkscape:deskcolor="#d1d1d1" />
  <line
     x1="13.3635"
     y1="220.267"
     x2="14.8531"
     y2="129.834"
     stroke="#000000"
     stroke-width="20"
     stroke-linecap="round"
     id="line1" />
  <line
     x1="17.2432"
     y1="131.03799"
     x2="211.276"
     y2="219.308"
     stroke="#000000"
     stroke-width="20"
     stroke-linecap="round"
     id="line2" />
  <line
     x1="212.702"
     y1="217.65601"
     x2="11.1304"
     y2="14.7623"
     stroke="#000000"
     stroke-width="20"
     stroke-linecap="round"
     id="line3" />
  <line
     x1="152.789"
     y1="78.046303"
     x2="10.0463"
     y2="14.2112"
     stroke="#000000"
     stroke-width="20"
     stroke-linecap="round"
     id="line4" />
  <line
     x1="153.836"
     y1="78.858803"
     x2="219.067"
     y2="12.0979"
     stroke="#000000"
     stroke-width="20"
     stroke-linecap="round"
     id="line5" />
  <line
     x1="239.86301"
     y1="96.362503"
     x2="154.36301"
     y2="15.1375"
     stroke="#000000"
     stroke-width="20"
     stroke-linecap="round"
     id="line6" />
  <path
     style="fill:#ececec;stroke-width:0.349059"
     d="m 10.644042,229.70379 c -2.7499923,-0.83651 -5.4162322,-3.36203 -6.4743304,-6.13262 -0.6366223,-1.66697 -0.6340686,-2.7631 0.1130044,-48.50285 0.8655394,-52.9929 0.571956,-48.89684 3.7310885,-52.05597 3.1398205,-3.13983 7.5718155,-3.8103 11.6215765,-1.75813 1.765121,0.89445 148.776609,67.84713 151.229029,68.87345 0.86767,0.36311 -4.50154,-5.23691 -18.52769,-19.32417 C 141.47455,159.894 107.64153,125.83579 77.152222,95.118596 22.248594,39.804591 6.2331837,23.760111 3.3500249,21.18244 -0.46681899,17.770013 -0.77158383,11.787381 2.6721288,7.8751164 5.7931826,4.329412 9.9552816,3.6026529 15.00954,5.7208362 16.5454,6.364498 47.871619,20.347428 84.62336,36.794014 c 36.75174,16.446587 66.99312,29.857625 67.20306,29.802309 0.54003,-0.142283 20.47228,-20.591092 20.35569,-20.883226 -0.0528,-0.132297 -5.82928,-5.674668 -12.83665,-12.316381 -14.19694,-13.456134 -14.39422,-13.697788 -14.60597,-17.89113 -0.14581,-2.887393 0.49928,-4.748143 2.39437,-6.9065256 2.71643,-3.093847 7.6753,-4.1331813 11.27168,-2.3624461 1.14973,0.5660862 5.7653,4.7135327 14.66048,13.1735757 l 12.98246,12.347376 13.96237,-14.108787 C 215.64109,1.8546206 215.14892,2.2345198 219.6271,2.507086 c 3.98307,0.2424316 6.7196,2.1271759 8.39179,5.7797145 1.13574,2.4807815 1.02877,5.7904925 -0.26572,8.2213805 -0.55046,1.033698 -5.65853,6.530575 -14.05375,15.12347 -7.25394,7.424736 -13.14431,13.619745 -13.08972,13.766685 0.0546,0.146937 10.6234,10.249935 23.48622,22.451099 26.13349,24.789191 25.49224,24.072485 25.46939,28.466186 -0.0199,3.832729 -1.97122,7.070909 -5.27888,8.760399 -2.22352,1.13573 -6.17092,1.21422 -8.48925,0.1688 -1.10256,-0.49719 -8.29199,-7.117439 -25.29547,-23.292868 L 186.7466,59.353693 172.78424,73.456455 C 159.61466,86.75846 158.71508,87.592998 156.941,88.154208 c -2.87178,0.908461 -5.17959,0.560275 -8.94815,-1.350031 C 145.53089,85.556196 63.59177,48.792869 57.071158,46.010673 l -1.570766,-0.670207 2.818634,2.898342 c 1.550248,1.59409 38.453545,38.766685 82.007324,82.605762 43.55378,43.83908 79.62099,80.25139 80.14935,80.91625 2.16413,2.72321 2.61398,7.08154 1.04781,10.1515 -1.19463,2.34166 -4.35231,5.48885 -6.38413,6.36292 -1.45207,0.62466 -2.29481,0.7518 -4.27962,0.64562 -2.43568,-0.1303 -3.80332,-0.73826 -94.38464,-41.95708 -50.552233,-23.00368 -91.958062,-41.76992 -92.012957,-41.70277 -0.0549,0.0671 -0.297045,13.55214 -0.538111,29.96664 -0.241066,16.4145 -0.547361,33.85001 -0.680655,38.74556 -0.237588,8.72598 -0.260592,8.93627 -1.169882,10.69442 -1.12561,2.17641 -3.277072,4.08906 -5.421557,4.81976 -1.665905,0.56763 -4.51579,0.67028 -6.007916,0.2164 z"
     id="path6" />
  <path
     style="fill:#e6e6e6;stroke-width:0.349059"
     d="m 9.4245948,228.92881 c -1.9592057,-1.012 -3.5851029,-2.63454 -4.568936,-4.55949 -0.8370583,-1.63778 -0.8414813,-1.70472 -0.8418087,-12.74066 -4.932e-4,-16.62968 0.9933572,-73.1691 1.3914887,-79.16074 0.4439655,-6.68143 0.6709013,-7.45521 2.7211389,-9.27826 2.2179103,-1.97213 4.1692723,-2.79857 6.6357603,-2.81036 2.510779,-0.012 2.618881,0.0306 18.223844,7.19107 16.066798,7.37234 70.481638,32.16965 108.527408,49.45687 16.01406,7.27646 29.27609,13.17672 29.47116,13.1117 0.19508,-0.065 -1.11737,-1.67956 -2.91656,-3.58785 C 163.72816,181.948 87.109565,104.7502 39.732846,57.245687 10.521472,27.955515 1.8005959,19.016812 1.2503727,17.802012 -0.69649414,13.50366 1.4027508,7.9671936 5.830069,5.7237017 8.0062638,4.6209405 11.00904,4.5490073 13.787833,5.5330692 c 1.055904,0.37393 10.166346,4.3657932 20.245426,8.8708068 103.638991,46.32318 117.037921,52.266406 117.833911,52.266406 0.44574,0 18.83748,-18.65683 19.91786,-20.204939 0.66263,-0.949503 2.16256,0.636642 -15.50748,-16.398758 -4.85169,-4.677443 -9.32639,-9.232664 -9.94376,-10.122713 -0.99696,-1.437298 -1.13616,-1.934204 -1.24469,-4.443356 -0.10727,-2.479789 -0.0131,-3.040299 0.77006,-4.585886 1.65534,-3.2666613 5.08046,-5.3296849 8.84857,-5.3296849 3.4237,0 3.43733,0.010945 22.37454,17.9606939 4.6677,4.424313 8.65995,8.105252 8.87165,8.179864 0.2117,0.07461 6.13142,-5.6805 13.15493,-12.789137 12.99066,-13.1481223 15.59714,-15.5312602 17.58584,-16.0789527 1.4532,-0.4002164 5.01229,0.028754 6.63761,0.8000204 4.23785,2.010991 6.44715,8.0975223 4.42904,12.2018123 -0.70525,1.434285 -5.78671,6.942851 -19.63487,21.285212 -4.17562,4.324632 -7.59204,8.010643 -7.59204,8.191128 0,0.306013 5.02441,5.151483 32.0409,30.899805 16.21767,15.456391 17.07147,16.50938 16.73954,20.644589 -0.31337,3.90396 -3.10895,7.58765 -6.46584,8.51994 -1.88182,0.52263 -4.79237,0.44659 -6.25213,-0.16333 -1.97115,-0.82361 -6.23943,-4.72895 -33.72385,-30.856256 C 194.2722,66.204166 187.07049,59.45706 186.86926,59.38677 186.66802,59.31648 180.27504,65.538186 172.66263,73.212783 157.20211,88.79959 157.48849,88.577355 153.3234,88.220602 151.4808,88.062779 149.59969,87.330771 141.19439,83.500776 111.1375,69.80492 55.561023,45.026166 55.356991,45.230198 c -0.0843,0.08431 6.43563,6.788462 14.488741,14.898127 C 119.59113,110.22306 213.57289,205.0388 216.97459,208.56279 c 4.68784,4.85636 5.37421,6.14868 5.13656,9.67123 -0.17884,2.65074 -0.82268,4.07077 -2.94645,6.49855 -3.59862,4.11377 -6.83128,4.83103 -12.2731,2.72315 -4.77156,-1.84825 -14.3973,-6.18068 -83.67375,-37.66052 -81.301008,-36.94391 -98.198089,-44.58663 -98.575404,-44.58663 -0.361338,0 -0.61886,9.91095 -1.106515,42.58521 -0.403391,27.0283 -0.706706,35.04894 -1.373971,36.33228 -0.967013,1.85985 -2.877606,3.79113 -4.599269,4.64907 -2.371628,1.18183 -6.014436,1.25062 -8.1380962,0.15368 z"
     id="path7" />
  <path
     style="fill:#ececec;stroke-width:0.349059"
     d="m 10.488388,229.24435 c -0.7587916,-0.2004 -1.7781841,-0.73394 -2.2653173,-1.18563 -0.4871332,-0.4517 -0.9837465,-0.82127 -1.1035855,-0.82127 -0.1198386,0 -0.6707701,-0.66757 -1.2242919,-1.4835 -0.5535214,-0.81592 -1.0911035,-1.56204 -1.1946264,-1.65803 -0.4253033,-0.39436 -0.5098517,-3.69352 -0.4694638,-18.31892 0.072186,-26.14025 0.8425759,-67.50751 1.3945007,-74.87985 0.3830655,-5.1168 0.4894552,-5.45093 2.3571673,-7.40308 1.9388587,-2.02651 3.8112129,-2.82404 6.8522389,-2.91872 1.439869,-0.0448 2.814289,0.0794 3.054267,0.27606 0.239978,0.19666 0.438729,0.22053 0.441669,0.053 0.0029,-0.16749 0.120747,-0.14312 0.261795,0.0542 0.141047,0.19728 0.963293,0.65411 1.827214,1.01516 2.059848,0.86087 4.304261,1.8746 8.481826,3.83098 1.881258,0.881 3.495762,1.60182 3.587786,1.60182 0.09202,0 1.380193,0.56803 2.862594,1.26229 3.000205,1.4051 6.510605,3.02156 8.629282,3.9736 2.451672,1.10166 8.065097,3.66418 11.693478,5.33803 4.626565,2.13435 7.251196,3.33659 8.551948,3.91732 1.712197,0.76442 5.280956,2.38844 7.853829,3.57399 1.055903,0.48655 2.705207,1.23774 3.66512,1.66932 0.959912,0.43157 2.45214,1.10232 3.316061,1.49055 0.863921,0.38823 2.827378,1.28737 4.363238,1.99809 4.664037,2.15828 6.898472,3.17663 8.726477,3.97711 0.959912,0.42034 2.373602,1.05808 3.141532,1.41721 0.76793,0.35912 2.495772,1.14642 3.839649,1.74957 1.343875,0.60314 3.307335,1.50594 4.363235,2.00621 2.32416,1.10116 4.73437,2.2059 7.41449,3.39849 1.10224,0.49047 2.86799,1.28445 3.9239,1.76441 l 3.83965,1.74529 c 2.51711,1.14414 5.21425,2.36178 7.16174,3.2332 0.86393,0.38657 3.11502,1.4245 5.00244,2.30651 1.88742,0.88202 3.48599,1.60367 3.55237,1.60367 0.0664,0 1.3495,0.56945 2.85139,1.26545 6.85742,3.17785 11.67924,5.36667 11.82245,5.36667 0.086,0 1.29557,0.53966 2.68799,1.19925 6.38573,3.0249 19.18038,8.62236 19.34125,8.4615 0.0984,-0.0984 -1.90709,-2.35155 -4.45656,-5.00706 C 161.05502,179.30291 101.51415,119.23795 53.563969,71.048781 17.356149,34.660488 6.029417,23.177939 3.0352841,19.824986 0.36268166,16.832097 -0.12398676,13.798134 1.5228469,10.39623 2.3001158,8.7906065 5.5035065,5.44533 5.8918696,5.833693 c 0.1191653,0.1191652 0.2166641,0.00723 0.2166641,-0.2487479 0,-0.2559766 0.092886,-0.3725257 0.2064143,-0.2589979 0.1135276,0.1135279 0.8603158,0.00962 1.6595288,-0.2309089 2.1507942,-0.6472938 5.4525922,0.1408428 10.8747132,2.5957854 0.76793,0.3476911 2.103081,0.9506589 2.967002,1.3399281 0.863921,0.3892693 2.356148,1.0662952 3.316061,1.5045022 0.959912,0.438207 1.823834,0.811013 1.919825,0.828459 0.09599,0.01745 1.411483,0.609279 2.923315,1.315185 1.511832,0.705905 2.933375,1.283465 3.158985,1.283465 0.225609,0 0.559421,0.14734 0.741805,0.327422 0.182383,0.180083 1.666757,0.894913 3.298608,1.588512 1.631851,0.6936 3.634577,1.567257 4.450503,1.941462 1.715255,0.78666 3.922467,1.770194 6.283063,2.799734 0.911917,0.397719 1.937861,0.87337 2.279879,1.057001 0.342015,0.183631 2.619626,1.199022 5.061357,2.256424 4.028738,1.744663 5.918928,2.601045 8.453687,3.830083 0.479956,0.232718 2.757567,1.241001 5.061356,2.240628 7.744769,3.360499 9.157631,3.988727 12.566127,5.58752 1.53586,0.720411 4.677391,2.130328 6.981181,3.13315 2.30379,1.002822 4.659939,2.02893 5.235886,2.280242 0.575948,0.251312 1.989637,0.884394 3.141532,1.406844 2.029754,0.920616 3.240643,1.461706 6.719388,3.002586 1.95669,0.866699 4.44937,2.004066 5.67221,2.588136 0.74539,0.356023 3.63697,1.636333 10.73357,4.752513 0.81592,0.358278 2.15107,0.944746 2.967,1.303261 0.81592,0.358515 2.03327,0.891057 2.7052,1.183429 0.67194,0.292372 2.16417,0.956868 3.31607,1.476663 1.15189,0.519794 2.56558,1.1481 3.14153,1.396236 0.57595,0.248136 1.9111,0.844143 2.967,1.324456 5.55452,2.526671 16.62032,7.231617 17.0084,7.231617 0.58119,0 20.34092,-20.308351 20.34092,-20.905682 0,-0.12963 -2.31688,-2.494903 -5.14862,-5.256163 -13.18306,-12.854933 -20.70845,-20.486903 -21.1794,-21.479368 -0.77357,-1.630165 -1.04967,-5.122025 -0.5296,-6.697843 0.24248,-0.734726 0.44218,-1.414404 0.44377,-1.510395 0.002,-0.09599 0.68266,-0.8924797 1.51347,-1.7699748 1.87141,-1.9765647 3.91477,-3.0237594 6.49098,-3.3265419 1.7121,-0.2012246 2.23437,-0.108401 3.85712,0.6855366 1.03229,0.5050511 2.41986,1.4292496 3.0835,2.0537742 0.66364,0.6245246 2.27388,2.0779589 3.5783,3.2298539 1.30442,1.151895 3.3521,3.036814 4.55041,4.188709 6.23303,5.991636 16.66099,15.700765 16.99813,15.8264 0.17525,0.06531 6.16651,-5.697416 13.31392,-12.806053 13.72468,-13.6502323 14.35206,-14.2362175 16.62315,-15.5262203 1.47026,-0.8351217 1.74741,-0.8417483 6.18201,-0.1478119 0.40389,0.063201 1.14448,0.383641 1.64575,0.7120883 0.50128,0.3284472 0.99547,0.5971768 1.09822,0.5971768 0.29556,0 1.58305,1.3659111 1.58305,1.6794764 0,0.1557819 0.35342,0.662594 0.78538,1.1262496 0.43196,0.4636551 0.74363,0.9252344 0.69261,1.0257313 -0.051,0.1004973 0.0875,0.9882156 0.30782,1.9727078 0.64263,2.871604 0.18603,4.68463 -1.81396,7.202627 -2.07256,2.609375 -1.98825,2.518893 -17.64119,18.932113 -3.4787,3.647667 -6.76653,7.159889 -7.30629,7.804939 l -0.98138,1.172818 2.94305,2.849383 c 1.61868,1.567164 6.15477,5.908767 10.0802,9.648014 3.92543,3.739246 7.9444,7.584013 8.93104,8.543925 0.98664,0.959913 3.42969,3.302501 5.42898,5.205752 9.15087,8.711251 19.02047,18.687181 20.05947,20.27556 1.46072,2.23312 1.7097,3.518509 1.16494,6.014278 -0.24179,1.107746 -0.41066,2.131888 -0.37526,2.275878 0.0354,0.14398 -0.11889,0.26179 -0.34287,0.26179 -0.22398,0 -0.31,0.0972 -0.19115,0.21609 0.11885,0.11884 0.0272,0.40581 -0.20362,0.6377 -0.23084,0.23189 -0.8921,0.95931 -1.46947,1.61648 -1.40687,1.60131 -3.48982,2.48192 -5.98313,2.5295 -2.65461,0.0507 -4.31152,-0.17778 -4.31152,-0.59442 0,-0.18315 -0.10372,-0.22928 -0.23049,-0.10251 -0.12676,0.12677 -0.44982,-0.0827 -0.71791,-0.46541 -0.26808,-0.38274 -0.61711,-0.6959 -0.77562,-0.6959 -0.15851,0 -0.90721,-0.58903 -1.66376,-1.30897 -0.75656,-0.71993 -2.30654,-2.15988 -3.4444,-3.199882 -1.13785,-1.040004 -3.1733,-2.924923 -4.52321,-4.188709 -1.34991,-1.263789 -4.31493,-4.025639 -6.58894,-6.137446 -2.27401,-2.111808 -5.09752,-4.782109 -6.27445,-5.934004 -1.17694,-1.151895 -4.31984,-4.13635 -6.98421,-6.632123 -2.66437,-2.495772 -5.64814,-5.32315 -6.63061,-6.283063 -3.42581,-3.347152 -11.11141,-10.472645 -11.42015,-10.587865 -0.17109,-0.06385 -6.24107,5.79394 -13.48884,13.017309 -7.24776,7.223369 -13.98228,13.688729 -14.96559,14.367467 -2.22228,1.53394 -3.92763,1.793797 -6.62697,1.009803 -1.84928,-0.537107 -7.12996,-2.710248 -11.83062,-4.86862 -0.95992,-0.440756 -2.45214,-1.120518 -3.31606,-1.510577 -0.86393,-0.39006 -2.59177,-1.177052 -3.83965,-1.748873 -1.24789,-0.571822 -2.81866,-1.278513 -3.4906,-1.570428 -1.08687,-0.472172 -2.85101,-1.269995 -7.50477,-3.393995 -0.76793,-0.350487 -2.76129,-1.279686 -4.4297,-2.064883 -1.6684,-0.785198 -3.12725,-1.427631 -3.24187,-1.427631 -0.11462,0 -1.86118,-0.785383 -3.88124,-1.745295 -2.02006,-0.959913 -3.80783,-1.745296 -3.97282,-1.745296 -0.16499,0 -0.74467,-0.234341 -1.28818,-0.520754 -1.56123,-0.822725 -7.791296,-3.667955 -8.031553,-3.667955 -0.119424,0 -1.018209,-0.385853 -1.997306,-0.857453 -3.237655,-1.559477 -7.899147,-3.680314 -8.08914,-3.680314 -0.102809,0 -0.845882,-0.296264 -1.651273,-0.658364 -0.805394,-0.3621 -2.249735,-1.007996 -3.209647,-1.435324 -0.959912,-0.427329 -2.609217,-1.16969 -3.66512,-1.649688 -1.055904,-0.480002 -3.804744,-1.699862 -6.108534,-2.710803 -2.30379,-1.010942 -5.05263,-2.232338 -6.108534,-2.714217 -6.445285,-2.941406 -10.19894,-4.485032 -10.405059,-4.278913 -0.0984,0.0984 3.496245,3.910411 7.988101,8.47114 10.511823,10.672998 45.491505,45.937332 61.233415,61.731716 6.71938,6.74179 23.84073,24.01191 38.04743,38.37805 14.20671,14.36615 32.37936,32.72742 40.38368,40.80283 16.15661,16.30011 16.32641,16.47986 17.6614,18.69674 0.80286,1.33323 0.94075,1.94054 0.91179,4.01599 -0.0216,1.54629 -0.24943,2.86163 -0.61981,3.57786 -0.32214,0.62294 -0.49933,1.13263 -0.39375,1.13263 0.18148,0 -1.45089,1.92482 -2.64284,3.11634 -1.10736,1.10695 -2.64777,2.29751 -3.13713,2.42462 -3.58052,0.93007 -4.1968,0.86919 -9.05454,-0.89442 -3.18969,-1.15802 -4.96832,-1.92091 -7.75702,-3.32713 -0.71469,-0.36038 -1.37954,-0.65354 -1.47744,-0.65146 -0.0979,0.002 -1.53152,-0.61859 -3.18583,-1.37926 -1.6543,-0.76068 -3.08464,-1.38305 -3.17853,-1.38305 -0.0939,0 -1.64345,-0.70684 -3.44346,-1.57076 -1.80001,-0.86393 -3.4156,-1.57077 -3.59021,-1.57077 -0.17461,0 -1.04525,-0.40676 -1.93474,-0.90391 -0.88949,-0.49714 -1.81247,-0.94512 -2.05105,-0.9955 -0.508,-0.10727 -2.67207,-1.078 -7.14081,-3.20313 -1.76903,-0.84127 -3.35928,-1.52958 -3.53389,-1.52958 -0.17461,0 -1.04524,-0.40676 -1.93473,-0.90391 -0.8895,-0.49715 -1.81247,-0.94475 -2.05106,-0.99467 -0.23858,-0.0499 -2.00455,-0.8379 -3.92438,-1.75105 -1.91982,-0.91316 -3.64767,-1.69217 -3.83965,-1.73113 -0.19198,-0.039 -1.91982,-0.82706 -3.83965,-1.75132 -1.91982,-0.92425 -3.64767,-1.70479 -3.83965,-1.73451 -0.19198,-0.0297 -0.50613,-0.15152 -0.69812,-0.27064 -0.19198,-0.11913 -5.45404,-2.52485 -11.69348,-5.34605 -6.23943,-2.8212 -12.1298,-5.49049 -13.08971,-5.93176 -0.95991,-0.44127 -2.45214,-1.12013 -3.31606,-1.50858 -6.03184,-2.71214 -8.48224,-3.83574 -13.02324,-5.97165 -2.07525,-0.97612 -3.85226,-1.77475 -3.94891,-1.77475 -0.0967,0 -1.22611,-0.48877 -2.50989,-1.08614 -1.283783,-0.59738 -2.96246,-1.37403 -3.73039,-1.7259 -0.76793,-0.35187 -2.920535,-1.35534 -4.783565,-2.22993 -1.863029,-0.87458 -3.468408,-1.59016 -3.567509,-1.59016 -0.166484,0 -2.177776,-0.87629 -5.611289,-2.44476 -0.76793,-0.3508 -2.495772,-1.13375 -3.839649,-1.73988 -1.343878,-0.60613 -3.228797,-1.471 -4.188709,-1.92193 -0.959913,-0.45093 -2.609217,-1.20717 -3.665121,-1.68053 -1.728467,-0.77489 -4.164909,-1.88333 -8.202888,-3.73184 -0.76793,-0.35155 -2.495772,-1.13827 -3.839649,-1.74827 -1.343878,-0.61 -3.266708,-1.48996 -4.272955,-1.95546 -1.00625,-0.46551 -2.693465,-1.23907 -3.749369,-1.71903 l -3.839649,-1.74529 c -3.133825,-1.42447 -5.50232,-2.48393 -6.987217,-3.12549 -0.76793,-0.33178 -2.181619,-0.9705 -3.141532,-1.41935 -3.782942,-1.76893 -7.929008,-3.64571 -8.053858,-3.64571 -0.07235,0 -1.160412,-0.47123 -2.417914,-1.04718 -1.257501,-0.57595 -2.439509,-1.04718 -2.626684,-1.04718 -0.197284,0 -0.365852,1.65047 -0.401072,3.92692 -0.03342,2.1598 -0.08606,4.39814 -0.11698,4.97409 -0.03092,0.57595 -0.163273,7.56585 -0.294108,15.53313 -0.567699,34.57021 -0.891366,47.65097 -1.272095,51.41077 -0.268478,2.65129 -0.45678,3.2508 -1.391884,4.43147 -2.859283,3.61014 -6.426365,4.87103 -10.635396,3.7594 z"
     id="path8" />
  <path
     style="fill:#f2f2f2;stroke-width:0.349059"
     d="m 10.646303,229.28238 c -10e-7,-0.12317 -0.419226,-0.32917 -0.9316118,-0.45777 -1.1584607,-0.29075 -5.0023938,-4.22314 -5.0023938,-5.1175 0,-0.3621 -0.1423711,-0.65837 -0.3163801,-0.65837 -0.1740095,0 -0.2621626,-0.27488 -0.1958962,-0.61085 0.066266,-0.33597 0.2257163,-14.43359 0.354333,-31.32805 0.1286164,-16.89446 0.2855178,-32.3665 0.3486692,-34.38232 0.1964714,-6.27142 0.6592731,-22.39275 0.7164717,-24.95772 0.029968,-1.34388 0.1388707,-2.67903 0.2420047,-2.967 0.103134,-0.28798 0.2739827,-1.13982 0.3796639,-1.89298 0.227502,-1.62136 1.6319286,-3.4814 3.6715851,-4.86269 1.1892803,-0.8054 2.0187653,-1.04493 4.3310753,-1.25069 2.609772,-0.23223 4.627286,0.0281 5.128954,0.6619 0.09599,0.12126 1.588219,0.83269 3.316061,1.58094 1.727843,0.74826 3.298609,1.46729 3.490591,1.59786 0.191983,0.13057 1.998363,0.95099 4.014179,1.82317 3.702352,1.60188 6.392152,2.81786 11.169891,5.04957 1.439868,0.67257 4.817015,2.20352 7.50477,3.40212 2.687754,1.19859 6.575107,2.98465 8.638562,3.96903 2.063452,0.98438 3.821122,1.78977 3.905929,1.78977 0.08481,0 1.695136,0.72149 3.578505,1.60331 1.883373,0.88182 3.895541,1.81364 4.471489,2.07071 1.00537,0.44873 7.68642,3.47955 11.693478,5.30468 1.055904,0.48094 3.548839,1.64194 5.539854,2.57999 1.991015,0.93806 3.716275,1.70556 3.833908,1.70556 0.117629,0 1.158918,0.45914 2.313972,1.02031 1.88414,0.91539 3.749114,1.76374 7.510513,3.41641 0.67194,0.29524 2.32124,1.05611 3.66512,1.69083 2.06878,0.97709 7.79889,3.60866 13.26425,6.09165 3.49081,1.58593 5.44197,2.44128 5.56886,2.44128 0.0758,0 1.75969,0.77682 3.74204,1.72626 3.85004,1.84397 11.46939,5.30171 21.92988,9.95201 3.55168,1.57893 6.9965,3.15018 7.65516,3.49169 1.35766,0.70392 14.63872,6.4717 14.90192,6.4717 0.38525,0 -1.04279,-1.65481 -4.61622,-5.34925 C 161.26179,179.50802 100.3614,118.08546 25.970589,43.188412 15.526415,32.673163 7.0548025,24.073221 7.1447843,24.077427 7.2347658,24.081634 6.384282,23.151227 5.2548207,22.009856 4.1253595,20.868485 3.0380769,19.965295 2.8386374,20.002766 2.6391978,20.040238 2.4663794,19.835282 2.4545964,19.547308 2.4428134,19.259334 2.0587695,18.316875 1.6011656,17.452953 -0.1064773,14.229054 0.62359539,10.872027 3.7267002,7.6792995 5.3869916,5.9710561 6.2418058,5.4796906 8.3774176,5.0059674 10.22966,4.5951014 14.057332,5.6534455 19.39418,8.052082 c 5.664839,2.546051 15.366263,6.825355 18.653258,8.227964 1.53586,0.655374 3.263703,1.414707 3.83965,1.687408 0.575948,0.2727 1.911099,0.881893 2.967002,1.353762 1.055904,0.47187 2.783746,1.246585 3.83965,1.721591 1.055904,0.475006 4.275974,1.918191 7.155711,3.207078 2.879737,1.288887 6.021269,2.706848 6.981181,3.151023 2.408428,1.114439 4.867776,2.207335 12.566127,5.584192 3.647667,1.600037 8.169633,3.629238 10.04881,4.509338 1.87918,0.880097 3.495251,1.600178 3.591266,1.600178 0.09602,0 1.778578,0.724692 3.739023,1.610422 5.351564,2.417848 6.497358,2.931032 13.512632,6.052108 3.55167,1.580131 6.76794,3.039184 7.14725,3.24234 0.37932,0.203153 3.12816,1.427798 6.10854,2.721432 9.27678,4.026589 15.11655,6.606746 17.11235,7.560672 1.0559,0.504687 2.78374,1.26683 3.83964,1.693652 1.05591,0.426819 3.75903,1.574665 6.00694,2.550763 2.24792,0.976098 4.46115,1.868601 4.9183,1.983336 0.72606,0.182234 1.99091,-0.975267 10.00141,-9.152552 5.04362,-5.148642 9.57266,-9.882941 10.06452,-10.520665 l 0.89429,-1.159494 -12.88846,-12.868644 c -9.17747,-9.163362 -13.07134,-13.28416 -13.5236,-14.31176 -0.7111,-1.615737 -0.85431,-5.529492 -0.25957,-7.093789 0.99012,-2.6042028 5.68212,-5.545889 8.92038,-5.5926975 2.91029,-0.042068 5.04775,1.465004 13.98012,9.8570385 1.35216,1.27037 4.88238,4.587374 7.84492,7.37112 2.96254,2.783747 6.2881,5.904634 7.39012,6.935307 l 2.00369,1.873949 1.14675,-0.964467 c 0.63072,-0.530457 6.90954,-6.647972 13.95295,-13.594478 10.07412,-9.9355265 13.23901,-12.854652 14.83501,-13.6829841 l 2.02882,-1.0529734 2.74086,0.4798896 c 1.50747,0.2639393 2.96136,0.7003906 3.23086,0.9698918 0.2695,0.2695011 0.77856,0.5815858 1.13124,0.6935216 2.00927,0.6377201 3.94873,6.5435505 3.12773,9.5242665 -0.68992,2.504823 -0.21326,1.954749 -17.75866,20.493584 -7.42745,7.848002 -9.75046,10.383075 -9.75046,10.640573 0,0.244257 3.9718,4.113019 18.83799,18.349302 2.20525,2.111807 6.29071,6.024763 9.07882,8.695456 8.45414,8.098135 18.16007,18.074334 19.4552,19.996955 1.19065,1.767513 1.2183,1.885896 1.05984,4.537768 -0.24581,4.113721 -1.41214,5.902721 -4.97399,7.629461 -1.34892,0.65394 -2.31632,0.84687 -4.25955,0.84951 -2.61457,0.004 -3.89865,-0.38331 -5.20249,-1.56736 -0.4228,-0.38396 -1.05858,-0.93323 -1.41283,-1.2206 -0.35424,-0.28736 -2.29338,-2.07404 -4.3092,-3.970405 -2.01582,-1.896357 -4.53093,-4.253005 -5.58913,-5.236992 -3.96704,-3.688804 -16.52245,-15.537939 -22.99696,-21.70331 -2.22801,-2.121637 -5.22901,-4.956237 -6.66888,-6.299113 -1.43987,-1.342875 -3.48186,-3.255949 -4.53776,-4.251277 -1.05591,-0.995325 -2.04457,-1.812755 -2.19704,-1.816507 -0.15246,-0.0038 -4.86476,4.527491 -10.47177,10.069436 -16.78367,16.588899 -18.29429,17.960516 -20.27305,18.407497 -1.30994,0.295904 -4.0587,0.386492 -4.05853,0.133753 7e-5,-0.09893 -0.82453,-0.471921 -1.83244,-0.828876 -3.34861,-1.185935 -22.19923,-9.546301 -31.32805,-13.894192 -2.01581,-0.960097 -4.52904,-2.068688 -5.58494,-2.463533 -1.05591,-0.394848 -2.23398,-0.915645 -2.61795,-1.157319 -0.38396,-0.241678 -1.71911,-0.862029 -2.967,-1.378557 -1.24788,-0.51653 -3.83965,-1.686025 -5.75947,-2.598877 -1.91983,-0.912852 -3.883284,-1.781566 -4.36324,-1.930475 -0.479957,-0.148905 -2.364876,-0.97356 -4.188709,-1.832567 -5.439594,-2.561992 -6.924173,-3.231233 -7.167855,-3.231233 -0.127277,0 -0.726378,-0.225219 -1.331339,-0.500484 C 67.036316,50.024957 56.028644,45.25666 55.756856,45.528448 c -0.280026,0.280029 2.908049,3.521388 65.254374,66.344982 12.95563,13.05481 32.33927,32.60802 43.07476,43.45157 10.7355,10.84356 26.36773,26.62975 34.7383,35.08044 14.97887,15.12223 21.19567,21.47341 21.01907,21.47341 -0.0493,0 0.3023,0.57756 0.78134,1.28346 1.16397,1.7152 1.32216,2.49955 1.06294,5.27037 -0.32918,3.51876 -0.33808,3.56889 -0.63352,3.56889 -0.15084,0 -0.27426,0.2024 -0.27426,0.44978 0,0.70193 -5.1902,5.48422 -5.952,5.48422 -0.37407,0 -0.67984,0.11781 -0.67949,0.2618 7.4e-4,0.30041 -4.27396,0.36263 -4.5384,0.066 -0.096,-0.10765 -1.43114,-0.63479 -2.967,-1.17142 -1.53586,-0.53663 -4.62907,-1.82297 -6.87381,-2.85853 -2.24473,-1.03557 -4.29458,-1.88284 -4.55522,-1.88284 -0.26064,0 -0.62311,-0.13762 -0.80549,-0.30582 -0.18239,-0.1682 -1.35261,-0.74317 -2.60049,-1.2777 -1.24789,-0.53454 -3.36842,-1.47823 -4.7123,-2.0971 -5.93608,-2.73361 -7.27229,-3.34123 -12.21707,-5.5555 -2.87973,-1.28955 -6.4925,-2.9392 -8.02836,-3.66589 -1.53586,-0.72669 -4.67739,-2.14369 -6.98118,-3.14888 -2.30379,-1.00518 -5.62139,-2.51724 -7.37246,-3.36013 -1.75106,-0.84289 -3.29817,-1.53253 -3.43802,-1.53253 -0.13985,0 -1.90277,-0.78538 -3.91761,-1.74529 -2.01483,-0.95992 -3.72404,-1.7453 -3.79824,-1.7453 -0.0742,0 -1.43381,-0.60738 -3.02136,-1.34973 -1.58754,-0.74236 -5.39967,-2.48647 -8.47139,-3.8758 -3.07172,-1.38933 -7.59817,-3.45225 -10.05878,-4.58427 -2.4606,-1.13201 -4.5511,-2.05821 -4.64555,-2.05821 -0.0944,0 -2.41304,-1.08036 -5.15242,-2.4008 -2.73938,-1.32044 -5.36117,-2.51855 -5.82621,-2.66247 -0.46504,-0.14392 -2.33775,-0.96665 -4.16159,-1.82829 -6.630426,-3.13244 -12.181132,-5.67456 -12.390358,-5.67456 -0.117738,0 -0.951563,-0.33145 -1.852945,-0.73655 -3.793459,-1.70486 -21.743989,-9.8989 -24.153191,-11.02542 -1.439869,-0.67327 -5.916552,-2.71383 -9.948184,-4.53458 -4.031632,-1.82075 -10.55031,-4.77407 -14.485951,-6.56292 -9.053746,-4.11518 -12.06203,-5.41432 -12.537369,-5.41432 -0.217645,0 -0.395939,0.7769 -0.420564,1.83256 -0.02351,1.00791 -0.08674,3.08918 -0.140504,4.62504 -0.05377,1.53585 -0.199317,9.46822 -0.323445,17.62748 -0.124127,8.15925 -0.289197,16.71993 -0.366822,19.02372 -0.193336,5.73793 -0.69128,28.04853 -0.694571,31.12059 -0.0015,1.37376 -0.120484,2.42476 -0.264471,2.33555 -0.143987,-0.0892 -0.261794,0.22953 -0.261794,0.70832 0,0.47879 -0.143197,1.24716 -0.318216,1.7075 -0.478295,1.25801 -3.372715,3.99634 -4.750916,4.4947 -0.667662,0.24143 -1.213931,0.53308 -1.213931,0.64812 0,0.11504 -1.178074,0.20129 -2.617942,0.19167 -1.439869,-0.01 -2.617943,-0.11826 -2.617943,-0.24144 z"
     id="path9" />
</svg>
