<svg width="294" height="277" viewBox="0 0 294 277" fill="none" xmlns="http://www.w3.org/2000/svg">
<path fill-rule="evenodd" clip-rule="evenodd" d="M30.9957 263.958C18.0609 263.748 7.66418 258.273 7.77397 251.728L9.57196 144.541C9.68176 137.996 20.2565 132.859 33.1913 133.069C46.1261 133.278 56.5228 138.753 56.413 145.299L54.615 252.485C54.5052 259.031 43.9305 264.167 30.9957 263.958Z" fill="white"/>
<path fill-rule="evenodd" clip-rule="evenodd" d="M21.6833 151.487C26.9509 140.116 35.6093 132.858 41.0226 135.277L249.958 228.616C255.371 231.034 255.489 242.213 250.222 253.583C244.954 264.954 236.296 272.212 230.882 269.793L21.947 176.454C16.5338 174.036 16.4157 162.858 21.6833 151.487Z" fill="white"/>
<path fill-rule="evenodd" clip-rule="evenodd" d="M249.448 259.756C239.694 269.272 228.48 273.717 224.401 269.684L13.1442 60.8674C9.06474 56.835 13.6644 45.8522 23.4179 36.3366C33.1714 26.8209 44.3853 22.3759 48.4647 26.4082L259.721 235.225C263.801 239.257 259.201 250.24 249.448 259.756Z" fill="white"/>
<path fill-rule="evenodd" clip-rule="evenodd" d="M189.3 110.691C183.653 123.091 174.551 131.155 168.969 128.704L10.9331 59.3005C5.35127 56.8492 5.40373 44.8105 11.0503 32.4113C16.6968 20.0122 25.7992 11.9478 31.381 14.3991L189.417 83.8022C194.999 86.2535 194.946 98.2922 189.3 110.691Z" fill="white"/>
<path fill-rule="evenodd" clip-rule="evenodd" d="M157.041 119.926C146.016 109.347 141.021 96.8071 145.886 91.9179L228.101 9.28819C232.966 4.39898 245.847 9.01161 256.873 19.5908C267.899 30.17 272.893 42.7096 268.028 47.5988L185.813 130.229C180.949 135.118 168.067 130.505 157.041 119.926Z" fill="white"/>
<path fill-rule="evenodd" clip-rule="evenodd" d="M277.722 134.288C269.152 143.146 258.297 146.682 253.476 142.184L150.532 46.1472C145.712 41.6497 148.751 30.8224 157.32 21.9637C165.89 13.1051 176.746 9.5697 181.567 14.0672L284.51 110.104C289.331 114.602 286.292 125.429 277.722 134.288Z" fill="white"/>
<path fill-rule="evenodd" clip-rule="evenodd" d="M28.9107 256.762C23.2038 256.669 18.6537 252.051 18.7477 246.447L20.2872 154.671C20.3812 149.066 25.0837 144.598 30.7906 144.691C36.4974 144.783 41.0475 149.401 40.9535 155.005L39.414 246.782C39.32 252.386 34.6175 256.854 28.9107 256.762Z" fill="black"/>
<path fill-rule="evenodd" clip-rule="evenodd" d="M23.6835 151.858C26.047 146.756 32.1745 144.501 37.3698 146.822L237.894 236.404C243.089 238.725 245.385 244.742 243.022 249.844C240.658 254.946 234.531 257.2 229.335 254.879L28.811 165.298C23.6157 162.977 21.3201 156.959 23.6835 151.858Z" fill="black"/>
<path fill-rule="evenodd" clip-rule="evenodd" d="M242.373 251.164C238.323 255.115 231.78 255.094 227.757 251.117L19.442 45.2081C15.4193 41.2318 15.4407 34.8061 19.4897 30.8558C23.5388 26.9055 30.0822 26.9265 34.1049 30.9027L242.42 236.812C246.443 240.788 246.422 247.214 242.373 251.164Z" fill="black"/>
<path fill-rule="evenodd" clip-rule="evenodd" d="M182.605 106.423C180.275 111.54 174.162 113.833 168.952 111.545L21.4341 46.7607C16.2238 44.4725 13.8889 38.4697 16.219 33.3531C18.5491 28.2365 24.6618 25.9436 29.8721 28.2318L177.39 93.0159C182.6 95.304 184.935 101.307 182.605 106.423Z" fill="black"/>
<path fill-rule="evenodd" clip-rule="evenodd" d="M167.031 110.364C162.949 106.447 162.873 100.021 166.862 96.0123L234.275 28.2591C238.264 24.2501 244.807 24.1756 248.889 28.0927C252.971 32.0098 253.047 38.4351 249.058 42.4441L181.645 110.197C177.656 114.206 171.113 114.281 167.031 110.364Z" fill="black"/>
<path fill-rule="evenodd" clip-rule="evenodd" d="M270.65 127.858C266.719 131.922 260.178 132.087 256.04 128.226L167.679 45.794C163.541 41.9336 163.373 35.5099 167.305 31.4464C171.236 27.3828 177.777 27.2181 181.915 31.0785L270.275 113.511C274.413 117.371 274.581 123.795 270.65 127.858Z" fill="black"/>
</svg>
