<svg width="284" height="261" viewBox="0 0 284 261" fill="none" xmlns="http://www.w3.org/2000/svg">
<line x1="10" y1="-10" x2="101.779" y2="-10" transform="matrix(0.016772 -0.999859 0.999869 0.0161742 26.7849 247.593)" stroke="#F2E7E7" stroke-width="20" stroke-linecap="round"/>
<line x1="10" y1="-10" x2="229.571" y2="-10" transform="matrix(0.913033 0.407886 -0.420341 0.907366 6.99966 152.023)" stroke="#F2E7E7" stroke-width="20" stroke-linecap="round"/>
<line x1="10" y1="-10" x2="302.529" y2="-10" transform="matrix(-0.711202 -0.702988 0.715781 -0.698325 236.667 234.712)" stroke="#F2E7E7" stroke-width="20" stroke-linecap="round"/>
<line x1="10" y1="-10" x2="171.225" y2="-10" transform="matrix(-0.915598 -0.402094 0.414445 -0.910074 173.96 88.262)" stroke="#F2E7E7" stroke-width="20" stroke-linecap="round"/>
<line x1="10" y1="-10" x2="105.739" y2="-10" transform="matrix(0.705325 -0.708884 0.721566 0.692346 161.592 108.504)" stroke="#F2E7E7" stroke-width="20" stroke-linecap="round"/>
<line x1="10" y1="-10" x2="130.947" y2="-10" transform="matrix(-0.731209 -0.682153 0.695295 -0.718724 264.654 111.54)" stroke="#F2E7E7" stroke-width="20" stroke-linecap="round"/>
<path fill-rule="evenodd" clip-rule="evenodd" d="M141.458 1.58152C219.048 2.06381 281.985 7.40724 282.03 13.5164L283.791 249.314C283.837 255.423 220.974 259.984 143.384 259.502C65.7936 259.02 2.85723 253.676 2.81161 247.567L1.05057 11.7699C1.00495 5.6607 63.8674 1.09922 141.458 1.58152Z" fill="white"/>
<path fill-rule="evenodd" clip-rule="evenodd" d="M23.9107 247.762C18.2039 247.669 13.6538 243.052 13.7478 237.447L15.2873 145.671C15.3813 140.067 20.0838 135.598 25.7906 135.691C31.4975 135.783 36.0476 140.401 35.9536 146.005L34.4141 237.782C34.3201 243.386 29.6176 247.854 23.9107 247.762Z" fill="black"/>
<path fill-rule="evenodd" clip-rule="evenodd" d="M18.6835 142.858C21.047 137.756 27.1745 135.501 32.3698 137.822L232.894 227.404C238.089 229.725 240.385 235.742 238.022 240.844C235.658 245.946 229.531 248.2 224.335 245.879L23.811 156.298C18.6158 153.977 16.3201 147.959 18.6835 142.858Z" fill="black"/>
<path fill-rule="evenodd" clip-rule="evenodd" d="M237.373 242.164C233.323 246.115 226.78 246.094 222.757 242.118L14.442 36.2082C10.4193 32.2319 10.4407 25.8062 14.4897 21.8559C18.5388 17.9056 25.0822 17.9266 29.1049 21.9028L237.42 227.812C241.443 231.788 241.422 238.214 237.373 242.164Z" fill="black"/>
<path fill-rule="evenodd" clip-rule="evenodd" d="M177.605 97.4234C175.275 102.54 169.162 104.833 163.952 102.545L16.4341 37.7606C11.2238 35.4725 8.8889 29.4697 11.219 24.3531C13.5491 19.2365 19.6618 16.9436 24.8721 19.2318L172.39 84.0158C177.6 86.304 179.935 92.3068 177.605 97.4234Z" fill="black"/>
<path fill-rule="evenodd" clip-rule="evenodd" d="M162.031 101.364C157.949 97.4466 157.873 91.0213 161.862 87.0123L229.275 19.259C233.264 15.2501 239.807 15.1756 243.889 19.0927C247.971 23.0098 248.047 29.4351 244.058 33.4441L176.645 101.197C172.656 105.206 166.113 105.281 162.031 101.364Z" fill="black"/>
<path fill-rule="evenodd" clip-rule="evenodd" d="M265.65 118.858C261.719 122.922 255.178 123.087 251.04 119.226L162.679 36.794C158.541 32.9336 158.373 26.5099 162.305 22.4463C166.236 18.3828 172.777 18.2181 176.915 22.0785L265.275 104.511C269.413 108.371 269.581 114.795 265.65 118.858Z" fill="black"/>
</svg>
